G04 MADE WITH FRITZING*
G04 WWW.FRITZING.ORG*
G04 DOUBLE SIDED*
G04 HOLES PLATED*
G04 CONTOUR ON CENTER OF CONTOUR VECTOR*
%ASAXBY*%
%FSLAX23Y23*%
%MOIN*%
%OFA0B0*%
%SFA1.0B1.0*%
%ADD10C,0.085361*%
%ADD11C,0.084000*%
%ADD12C,0.104488*%
%ADD13R,0.084000X0.084000*%
%LNMASK1*%
G90*
G70*
G54D10*
X346Y1998D03*
X346Y1898D03*
X346Y1798D03*
X346Y1698D03*
X346Y1598D03*
X346Y1498D03*
X346Y1398D03*
X346Y1298D03*
X346Y1198D03*
X346Y1098D03*
X346Y998D03*
X346Y898D03*
X346Y798D03*
X346Y698D03*
X346Y598D03*
X346Y498D03*
X346Y398D03*
X346Y298D03*
X346Y198D03*
X346Y98D03*
X446Y98D03*
X446Y198D03*
X446Y298D03*
X446Y398D03*
X446Y498D03*
X446Y598D03*
X446Y698D03*
X446Y798D03*
X446Y898D03*
X446Y998D03*
X446Y1098D03*
X446Y1198D03*
X446Y1298D03*
X446Y1398D03*
X446Y1498D03*
X446Y1598D03*
X446Y1698D03*
X446Y1798D03*
X446Y1898D03*
X446Y1998D03*
G54D11*
X1346Y698D03*
X1346Y798D03*
X1346Y898D03*
X1346Y998D03*
X1346Y1098D03*
X1346Y1198D03*
X1346Y1298D03*
X1346Y1398D03*
G54D12*
X1546Y1798D03*
X1746Y1398D03*
X1246Y2098D03*
X1046Y1798D03*
G54D13*
X1346Y698D03*
G04 End of Mask1*
M02*