; NON-PLATED HOLES START AT T1
; THROUGH (PLATED) HOLES START AT T100
M48
INCH
T100C0.031496
T101C0.040639
T102C0.040000
%
T100
X010461Y017975
X017461Y013975
X012461Y020975
X015461Y017975
T101
X004461Y008975
X004461Y009975
X004461Y007975
X003461Y013976
X003461Y005975
X003461Y000975
X003461Y001976
X003461Y019975
X003461Y003975
X004461Y018976
X003461Y008975
X004461Y011976
X003461Y004975
X003461Y010975
X004461Y005975
X004461Y010975
X004461Y003975
X004461Y014975
X004461Y016976
X004461Y015975
X003461Y012975
X003461Y002975
X004461Y004975
X003461Y007975
X004461Y013976
X004461Y019975
X003461Y011976
X003461Y009975
X004461Y000975
X004461Y017975
X003461Y015975
X004461Y002975
X004461Y012975
X003461Y018976
X003461Y016976
X004461Y001976
X003461Y017975
X003461Y014975
X004461Y006976
X003461Y006976
T102
X013461Y011975
X013461Y008975
X013461Y013975
X013461Y009975
X013461Y007975
X013461Y012975
X013461Y006975
X013461Y010975
T00
M30
